HIERARCHY
ROOT Hips
{
	OFFSET 0.000000 89.005402 0.000000
	CHANNELS 6 Xposition Yposition Zposition Xrotation Yrotation Zrotation
	JOINT Spine
	{
		OFFSET 0.116900 10.681000 0.373400
		CHANNELS 3 Xrotation Yrotation Zrotation
		JOINT Spine1
		{
			OFFSET 0.000000 13.840401 0.053500
			CHANNELS 3 Xrotation Yrotation Zrotation
			JOINT Spine2
			{
				OFFSET 0.000000 14.712700 -0.366200
				CHANNELS 3 Xrotation Yrotation Zrotation
				JOINT Neck
				{
					OFFSET 0.000000 35.415497 -3.314200
					CHANNELS 3 Xrotation Yrotation Zrotation
					JOINT Head
					{
						OFFSET 0.000000 16.899200 1.218300
						CHANNELS 3 Xrotation Yrotation Zrotation
						JOINT HeadTop_End
						{
							OFFSET 0.000000 22.206207 2.192500
							CHANNELS 3 Xrotation Yrotation Zrotation
							End Site
							{
								OFFSET 0.000000 22.314178 0.000000
							}
						}
					}
				}
				JOINT LeftShoulder
				{
					OFFSET 12.896400 26.716293 -4.548400
					CHANNELS 3 Xrotation Yrotation Zrotation
					JOINT LeftArm
					{
						OFFSET 19.027000 -4.857010 -1.718400
						CHANNELS 3 Xrotation Yrotation Zrotation
						JOINT LeftForeArm
						{
							OFFSET 24.179897 0.000000 0.000000
							CHANNELS 3 Xrotation Yrotation Zrotation
							JOINT LeftHand
							{
								OFFSET 27.156403 0.000000 0.000000
								CHANNELS 3 Xrotation Yrotation Zrotation
								JOINT LeftHandIndex1
								{
									OFFSET 16.441200 0.000000 0.000000
									CHANNELS 3 Xrotation Yrotation Zrotation
									JOINT LeftHandIndex2
									{
										OFFSET 4.821899 0.000000 0.000000
										CHANNELS 3 Xrotation Yrotation Zrotation
										JOINT LeftHandIndex3
										{
											OFFSET 6.386497 0.000000 0.000000
											CHANNELS 3 Xrotation Yrotation Zrotation
											JOINT LeftHandIndex4
											{
												OFFSET 5.188988 0.000000 0.000000
												CHANNELS 3 Xrotation Yrotation Zrotation
												End Site
												{
													OFFSET -0.178703 5.185913 0.000177
												}
											}
										}
									}
								}
								JOINT LeftHandThumb1
								{
									OFFSET 6.534897 -5.032593 5.900300
									CHANNELS 3 Xrotation Yrotation Zrotation
									JOINT LeftHandThumb2
									{
										OFFSET 3.818176 -2.204422 2.204423
										CHANNELS 3 Xrotation Yrotation Zrotation
										JOINT LeftHandThumb3
										{
											OFFSET 3.252098 -1.877594 1.877601
											CHANNELS 3 Xrotation Yrotation Zrotation
											JOINT LeftHandThumb4
											{
												OFFSET 5.251778 -3.032120 3.032117
												CHANNELS 3 Xrotation Yrotation Zrotation
												End Site
												{
													OFFSET 0.000023 6.780014 0.000000
												}
											}
										}
									}
								}
							}
						}
					}
				}
				JOINT RightShoulder
				{
					OFFSET -12.896300 26.716293 -4.548400
					CHANNELS 3 Xrotation Yrotation Zrotation
					JOINT RightArm
					{
						OFFSET -19.027000 -4.857010 -1.718400
						CHANNELS 3 Xrotation Yrotation Zrotation
						JOINT RightForeArm
						{
							OFFSET -24.179897 0.000000 0.000000
							CHANNELS 3 Xrotation Yrotation Zrotation
							JOINT RightHand
							{
								OFFSET -27.156403 0.000000 0.000000
								CHANNELS 3 Xrotation Yrotation Zrotation
								JOINT RightHandThumb1
								{
									OFFSET -6.591202 -4.852203 5.988100
									CHANNELS 3 Xrotation Yrotation Zrotation
									JOINT RightHandThumb2
									{
										OFFSET -3.818176 -2.204422 2.204423
										CHANNELS 3 Xrotation Yrotation Zrotation
										JOINT RightHandThumb3
										{
											OFFSET -3.252098 -1.877594 1.877601
											CHANNELS 3 Xrotation Yrotation Zrotation
											JOINT RightHandThumb4
											{
												OFFSET -5.251778 -3.032120 3.032117
												CHANNELS 3 Xrotation Yrotation Zrotation
												End Site
												{
													OFFSET -0.000023 6.780014 0.000000
												}
											}
										}
									}
								}
								JOINT RightHandIndex1
								{
									OFFSET -16.029404 0.000000 0.000000
									CHANNELS 3 Xrotation Yrotation Zrotation
									JOINT RightHandIndex2
									{
										OFFSET -5.213303 0.000000 0.000000
										CHANNELS 3 Xrotation Yrotation Zrotation
										JOINT RightHandIndex3
										{
											OFFSET -6.386528 0.000000 0.000000
											CHANNELS 3 Xrotation Yrotation Zrotation
											JOINT RightHandIndex4
											{
												OFFSET -5.189026 0.000000 0.000000
												CHANNELS 3 Xrotation Yrotation Zrotation
												End Site
												{
													OFFSET 0.236702 5.183624 0.001972
												}
											}
										}
									}
								}
							}
						}
					}
				}
			}
		}
	}
	JOINT LeftUpLeg
	{
		OFFSET 14.073000 -7.904099 -1.463000
		CHANNELS 3 Xrotation Yrotation Zrotation
		JOINT LeftLeg
		{
			OFFSET -0.109806 -34.073280 4.093200
			CHANNELS 3 Xrotation Yrotation Zrotation
			JOINT LeftFoot
			{
				OFFSET 0.109806 -29.899420 -6.319000
				CHANNELS 3 Xrotation Yrotation Zrotation
				JOINT LeftToeBase
				{
					OFFSET 1.551100 -14.988700 20.535801
					CHANNELS 3 Xrotation Yrotation Zrotation
					JOINT LeftToe_End
					{
						OFFSET 0.221200 0.570800 13.248301
						CHANNELS 3 Xrotation Yrotation Zrotation
						End Site
						{
							OFFSET 0.000000 13.262435 0.000000
						}
					}
				}
			}
		}
	}
	JOINT RightUpLeg
	{
		OFFSET -13.839300 -7.904099 -1.463000
		CHANNELS 3 Xrotation Yrotation Zrotation
		JOINT RightLeg
		{
			OFFSET 0.109694 -34.073219 4.093300
			CHANNELS 3 Xrotation Yrotation Zrotation
			JOINT RightFoot
			{
				OFFSET -0.109694 -29.899384 -6.319200
				CHANNELS 3 Xrotation Yrotation Zrotation
				JOINT RightToeBase
				{
					OFFSET -1.551100 -14.988700 20.535801
					CHANNELS 3 Xrotation Yrotation Zrotation
					JOINT RightToe_End
					{
						OFFSET -0.221200 0.570900 13.248299
						CHANNELS 3 Xrotation Yrotation Zrotation
						End Site
						{
							OFFSET 0.000000 13.262440 0.000000
						}
					}
				}
			}
		}
	}
}
MOTION
Frames: 4
Frame Time: 0.033333
-0.668068 87.163017 1.310170 -0.176899 -10.159853 -3.066432 3.538258 2.345500 3.005547 -1.311954 0.325492 -1.658851 -1.303342 0.322725 -1.666204 -2.258046 -0.918687 3.600313 0.358960 -1.043663 9.505217 -0.000000 -0.000000 0.000001 1.625777 -7.529782 9.160832 -16.086361 -76.623159 -15.398819 0.000000 -3.826570 -0.000001 -0.101409 -3.252354 16.571844 0.065444 0.949016 -7.889474 0.053566 0.858964 -7.136632 0.130650 1.337627 -11.156505 -0.000000 0.000000 -0.000001 -1.540038 3.690179 6.142351 3.939050 7.948714 0.746814 -0.579465 1.575001 2.538716 0.000000 -0.000000 0.000000 2.621180 37.632901 3.204970 8.924165 46.585032 -6.674670 -0.000002 13.439483 0.000001 5.194627 -14.341300 -49.338701 -0.756650 -9.465992 -15.176685 4.637200 -8.634128 -0.225405 -1.273762 0.137318 -2.094870 0.000001 -0.000000 -0.000001 0.012679 -0.420637 3.453724 0.082663 -1.071224 8.826113 0.071938 -0.999609 8.231505 0.000002 -0.000000 -0.000001 -3.032589 14.660147 14.125969 12.911620 6.726705 -1.544865 -6.449416 15.295556 -10.370906 -0.996277 0.000019 -0.000001 -0.000000 0.000000 -0.000000 -6.659321 -6.140786 -8.061593 6.683252 -8.446198 -2.814769 3.109343 5.376410 12.766898 -2.196672 0.000079 -0.003363 0.000000 -0.000002 -0.000000 
-0.471082 86.957497 1.384157 -2.312599 -12.423248 -3.909862 5.122885 2.324168 3.801314 -1.361409 0.323589 -1.906961 -1.351683 0.315823 -1.915247 -1.137754 -0.546593 3.610884 0.576229 0.507025 9.241561 -0.000000 -0.000001 -0.000000 1.463665 -6.717580 9.088355 -19.046572 -76.233531 -19.178589 0.000000 -3.443097 -0.000000 -0.032620 -2.659278 16.211432 0.061592 0.920805 -7.653585 0.051552 0.842698 -7.000734 0.129068 1.329614 -11.088528 -0.000000 0.000000 -0.000000 -1.540037 3.690181 6.142351 3.939049 7.948698 0.746809 -0.579465 1.575002 2.538718 -0.000000 -0.000000 -0.000002 2.618147 37.672110 3.214403 6.689220 48.203360 -4.145440 -0.000002 13.327619 -0.000001 5.649253 -13.474987 -47.562739 -0.756649 -9.465944 -15.176689 4.637199 -8.634149 -0.225388 -1.273760 0.137319 -2.094869 0.000003 -0.000000 0.000000 0.013831 -0.439251 3.606923 0.083246 -1.074921 8.856646 0.072190 -1.001454 8.246770 0.000001 -0.000002 -0.000001 -0.609729 14.895601 14.806037 14.398134 6.679467 -2.453227 -8.150711 16.459233 -10.145798 -1.068932 -0.000002 0.000000 0.000000 -0.000002 -0.000000 -5.863977 -4.514648 -8.068273 8.378419 -5.324193 -1.761673 2.891307 3.787004 12.318746 -2.524164 0.000093 -0.004390 -0.000000 -0.000002 0.000000 
-0.334792 86.688370 1.463941 -3.820922 -14.742231 -4.235519 5.736506 2.248310 4.197572 -1.064827 0.312530 -1.981627 -1.055043 0.300463 -1.988923 -0.735442 -0.238416 3.321521 1.149029 1.867273 7.683223 0.000000 0.000000 0.000001 1.113948 -5.070896 8.430604 -19.863952 -76.158078 -20.445143 0.000000 -3.113149 -0.000000 0.186535 -2.414859 15.778330 0.061042 0.916718 -7.619278 0.050917 0.837533 -6.957608 0.128568 1.327050 -11.066961 -0.000000 0.000000 0.000000 -1.540039 3.690189 6.142349 3.939049 7.948681 0.746815 -0.579465 1.575002 2.538714 -0.000000 0.000000 -0.000000 2.587182 37.110258 3.220932 5.810583 50.114515 -2.721526 -0.000002 12.885373 -0.000002 5.808486 -13.213278 -46.746989 -0.756642 -9.465977 -15.176679 4.637193 -8.634113 -0.225401 -1.273762 0.137321 -2.094871 0.000002 -0.000001 0.000001 0.015764 -0.468955 3.850943 0.087093 -1.099309 9.059452 0.073977 -1.013680 8.348168 -0.000000 0.000001 0.000002 1.377314 15.857199 14.773129 15.290896 6.364075 -3.122391 -9.476065 17.663931 -9.889497 -1.091762 0.000002 0.000004 -0.000000 0.000000 -0.000000 -6.336939 -4.875624 -8.228558 10.521973 -1.318451 -1.584833 2.281043 2.407647 11.987656 -2.579292 0.000045 -0.001491 -0.000000 0.000000 0.000000 
-0.337599 86.233994 1.560455 -4.712190 -15.733752 -3.940603 5.705277 2.151914 4.172255 -0.759723 0.295484 -1.796358 -0.751003 0.282865 -1.802185 -0.396814 -0.026368 2.519775 1.431437 2.328809 5.006110 0.000000 0.000001 -0.000001 0.977373 -4.163797 7.386219 -18.714811 -76.016187 -19.567314 -0.000000 -2.916840 -0.000000 0.507796 -2.312027 15.316547 0.063997 0.938516 -7.801656 0.051931 0.845792 -7.026704 0.129366 1.331126 -11.101525 -0.000000 -0.000000 0.000000 -1.540038 3.690177 6.142349 3.939052 7.948707 0.746809 -0.579465 1.575002 2.538719 0.000000 0.000000 -0.000002 2.518152 36.021557 3.232006 6.264650 52.027603 -2.208102 -0.000002 12.317968 -0.000001 5.796695 -13.373758 -46.628868 -0.756646 -9.465981 -15.176680 4.637182 -8.634125 -0.225419 -1.273762 0.137319 -2.094866 -0.000001 0.000002 -0.000001 0.018150 -0.503172 4.132418 0.094230 -1.143186 9.424128 0.077245 -1.035624 8.530489 0.000001 0.000000 -0.000002 2.629173 14.462104 14.277878 16.766183 6.179103 -4.099264 -10.938054 19.461398 -9.388875 -0.961451 -0.000002 -0.000000 -0.000000 0.000000 0.000000 -7.182333 -3.962523 -8.657412 14.114443 -1.077065 -1.642824 -0.291987 1.567609 11.197914 -1.496977 -0.001992 0.414766 -0.000000 -0.000001 -0.000000 
